<?xml version="1.0" encoding="UTF-8" standalone="no"?>
<svg
   xmlns:dc="http://purl.org/dc/elements/1.1/"
   xmlns:cc="http://creativecommons.org/ns#"
   xmlns:rdf="http://www.w3.org/1999/02/22-rdf-syntax-ns#"
   xmlns:svg="http://www.w3.org/2000/svg"
   xmlns="http://www.w3.org/2000/svg"
   xmlns:xlink="http://www.w3.org/1999/xlink"
   xmlns:sodipodi="http://sodipodi.sourceforge.net/DTD/sodipodi-0.dtd"
   xmlns:inkscape="http://www.inkscape.org/namespaces/inkscape"
   viewBox="0 0 640 480"
   version="1.1"
   id="svg885"
   sodipodi:docname="drop-bomb.svg"
   inkscape:version="1.0.1 (3bc2e813f5, 2020-09-07)">
  <metadata
     id="metadata889">
    <rdf:RDF>
      <cc:Work
         rdf:about="">
        <dc:format>image/svg+xml</dc:format>
        <dc:type
           rdf:resource="http://purl.org/dc/dcmitype/StillImage" />
      </cc:Work>
    </rdf:RDF>
  </metadata>
  <sodipodi:namedview
     pagecolor="#ffffff"
     bordercolor="#666666"
     borderopacity="1"
     objecttolerance="10"
     gridtolerance="10"
     guidetolerance="10"
     inkscape:pageopacity="0"
     inkscape:pageshadow="2"
     inkscape:window-width="1920"
     inkscape:window-height="1001"
     id="namedview887"
     showgrid="false"
     inkscape:zoom="1.534375"
     inkscape:cx="320"
     inkscape:cy="318.20774"
     inkscape:window-x="-9"
     inkscape:window-y="570"
     inkscape:window-maximized="1"
     inkscape:current-layer="svg885"
     inkscape:document-rotation="0" />
  <defs
     id="defs855">
    <filter
       id="h"
       x="-.14811"
       y="-.016176"
       width="1.2962"
       height="1.0324">
      <feGaussianBlur
         stdDeviation="4.139209"
         id="feGaussianBlur833" />
    </filter>
    <linearGradient
       id="c"
       x1="-119.08393"
       x2="-93.64047"
       y1="-195.18866"
       y2="-195.18866"
       gradientTransform="scale(1.4194566,0.70449497)"
       xlink:href="#a"
       gradientUnits="userSpaceOnUse" />
    <linearGradient
       id="d"
       x1="422.30174"
       x2="565.49932"
       y1="180.33773"
       y2="180.33773"
       gradientTransform="matrix(-0.24317559,0,0,-2.0317105,267.10327,482.608)"
       gradientUnits="userSpaceOnUse">
      <stop
         stop-color="#f7f7f7"
         offset="0"
         id="stop837" />
      <stop
         offset="1"
         id="stop839" />
    </linearGradient>
    <linearGradient
       id="e"
       x1="-119.08393"
       x2="-71.542686"
       y1="-195.18866"
       y2="-195.18866"
       gradientTransform="scale(1.4194566,0.70449497)"
       xlink:href="#a"
       gradientUnits="userSpaceOnUse" />
    <linearGradient
       id="f"
       x1="33.625894"
       x2="358.58426"
       y1="114.36362"
       y2="114.36362"
       gradientTransform="scale(0.3883513,2.5749882)"
       xlink:href="#a"
       gradientUnits="userSpaceOnUse" />
    <linearGradient
       id="g"
       x1="80.643025"
       x2="379.71238"
       y1="130.74585"
       y2="130.74585"
       gradientTransform="scale(0.48698603,2.053447)"
       xlink:href="#a"
       gradientUnits="userSpaceOnUse" />
    <linearGradient
       id="a">
      <stop
         stop-color="#fff"
         offset="0"
         id="stop845" />
      <stop
         stop-color="#fff"
         stop-opacity="0"
         offset="1"
         id="stop847" />
    </linearGradient>
    <radialGradient
       id="b"
       cx="303.83"
       cy="317.98"
       r="101.52"
       gradientTransform="matrix(-1.3852669,-5.8612366e-8,1.2932579e-8,-0.12808869,560.52709,392.15235)"
       gradientUnits="userSpaceOnUse">
      <stop
         stop-color="#d6d6d6"
         offset="0"
         id="stop850" />
      <stop
         stop-color="#d6d6d6"
         stop-opacity="0"
         offset="1"
         id="stop852" />
    </radialGradient>
  </defs>
  <path
     d="M 60.803373,148.31079 1.0860549,85.753071 2.918858e-4,0.70268751 57.546365,-2.08218e-4 99.891616,29.521412 60.803584,148.31079 Z"
     id="path857"
     style="fill-rule:evenodd;stroke-width:0.702896;fill:#cccccc" />
  <path
     d="M 206.29998,149.71658 266.0173,87.158862 267.10306,2.108479 209.55699,1.4055832 167.21174,30.927204 206.29977,149.71658 Z"
     id="path859"
     style="fill-rule:evenodd;stroke-width:0.702896;fill:#cccccc" />
  <path
     d="m 141.67153,482.60814 c 0,0 108.21782,-60.52354 108.5763,-151.84656 C 250.62001,237.17101 176.41566,25.001933 176.41566,25.001933 H 98.16931 c -3.5e-5,0 -74.204702,212.169077 -73.832167,305.759647 0.363158,91.32021 108.576307,151.84656 108.576307,151.84656 h 8.75386 z"
     fill="#ffffff"
     stroke-width="1.37557"
     id="path863"
     style="stroke-linecap:square;stroke-linejoin:round" />
  <path
     d="m 144.79941,134.70273 -8.5936,13.70647 -8.77917,-13.70647 V 3.261228 h 17.37207 V 134.70273 Z"
     fill="url(#d)"
     stroke-width="1.40579"
     id="path865"
     style="fill:#b3b3b3;stroke-linecap:square;stroke-linejoin:round" />
  <g
     stroke-width="1.957"
     id="g873"
     style="stroke-linecap:square;stroke-linejoin:round"
     transform="matrix(-0.70289573,0,0,-0.70289573,267.10327,482.608)">
    <path
       d="m 182.73,1.5647 c -1.0565,0.59251 -145.15,81.622 -145.64,203.74 -0.49953,125.61 99.095,410.38 99.095,410.38 17.209,-213.07 -144.87,-435.56 46.542,-614.12 z"
       fill="url(#g)"
       id="path867"
       style="fill:url(#g)" />
    <path
       d="m 273.5,83.062 c 74.183,143.63 -5.141,288.02 -5.2134,434.66 30.658,-99.509 59.174,-199.75 65.554,-301.31 -0.0267,-47.016 -21.973,-93.913 -60.34,-133.34 z"
       fill="url(#f)"
       id="path869"
       style="fill:url(#f)" />
    <path
       d="m 182.75,11.562 c -0.34747,0.19486 -16.222,9.1485 -37.314,25.344 -141.53,167.51 -11.504,369.33 -17.426,564.69 -9.5e-4,0.0312 9.3e-4,0.0626 0,0.0937 4.9938,14.951 8.158,24 8.158,24 17.209,-213.07 -144.83,-435.56 46.583,-614.12 z"
       fill="#70716d"
       filter="url(#h)"
       id="path871" />
  </g>
  <path
     d="m 249.78181,364.43014 c 0.0547,-0.32356 0.0979,-0.65482 0.0979,-0.98138 0,-13.81401 -49.38124,-25.0259 -110.22811,-25.0259 -60.844762,0 -110.228108,11.21119 -110.228108,25.0259 0,0.32658 0.04323,0.65785 0.09794,0.98138 2.275554,-13.35924 50.732905,-24.04466 110.129708,-24.04466 59.39539,0 107.85232,10.68472 110.1297,24.04466 z"
     fill="url(#b)"
     stroke-width="1.40579"
     id="path875"
     style="fill:#000000;stroke-linecap:square;stroke-linejoin:round" />
  <g
     fill-rule="evenodd"
     id="g883"
     transform="matrix(-0.70289573,0,0,-0.70289573,267.10327,482.608)">
    <path
       d="m 97.51,71.921 c 0,0 2.8201,33.362 87.643,3.5673 56.695,-19.914 78.406,2.1753 78.406,2.1753 0,0 -52.874,-72.441 -81.734,-72.211 -24.91,2.8009 -84.316,66.468 -84.316,66.468 z"
       fill="url(#e)"
       opacity="0.563"
       id="path879"
       style="fill:url(#e)" />
    <path
       d="m 97.51,71.921 c 0,0 2.8201,33.362 87.643,3.5673 56.695,-19.914 78.406,2.1753 78.406,2.1753 0,0 -52.874,-72.441 -81.734,-72.211 -24.91,2.8009 -84.316,66.468 -84.316,66.468 z"
       fill="url(#c)"
       opacity="0.563"
       id="path881"
       style="fill:url(#c)" />
  </g>
</svg>
